<svg xmlns="http://www.w3.org/2000/svg" width="430" height="430" fill="none" viewBox="0 0 430 430"><path fill="url(#c5l47kvn-Ma)" fill-rule="evenodd" d="M215 38.5c-97.478 0-176.5 79.022-176.5 176.5S117.522 391.5 215 391.5 391.5 312.478 391.5 215 312.478 38.5 215 38.5M56.5 215c0-87.537 70.963-158.5 158.5-158.5S373.5 127.463 373.5 215c0 69.86-45.197 129.164-107.945 150.267v-75.816c0-4.478-.867-8.754-2.441-12.669 16.781-3.393 30.62-9.523 40.767-20.056 13.112-13.612 18.499-32.927 18.499-57.91 0-18.678-3.842-34.04-11.585-46.246 1.088-3.251 2.334-7.801 2.979-13.027 1.128-9.143.54-21.509-7.342-32.356a9 9 0 0 0-6.339-3.66c-12.287-1.292-22.6 3.431-29.86 8.49-4.285 2.986-7.761 6.261-10.289 8.957-13.008-2.766-27.522-3.84-43.034-3.84-15.49 0-30.013 1.071-43.046 3.827-2.534-2.701-6.017-5.98-10.312-8.968-7.257-5.05-17.557-9.756-29.824-8.466a9 9 0 0 0-6.339 3.66c-7.649 10.527-8.428 22.487-7.44 31.519.59 5.394 1.845 10.118 2.96 13.512C114.962 164.474 111 179.951 111 198.816c0 25.019 5.48 44.34 18.699 57.945 10.225 10.524 24.15 16.648 41.002 20.034a33.9 33.9 0 0 0-2.436 12.656v.795c-4.909 1.496-9.646 2.645-14.21 2.752-5.835.136-10.894-1.437-15.305-6.866-.962-1.184-2.066-2.7-3.488-4.655l-.081-.11c-1.398-1.922-3.029-4.158-4.803-6.38-3.42-4.285-8.04-9.404-13.77-12.562-5.008-2.759-10.287-3.756-15.322-2.799-4.981.948-9.035 3.683-11.805 7.171-5.238 6.595-6.796 17.658.92 25.375 2.523 2.523 4.63 4.53 6.43 6.247 5.315 5.065 7.979 7.603 10.884 13.414 5.341 10.681 11.707 16.926 17.428 21.502 14.072 11.258 30.638 11.031 43.122 8.424v24.738C103.539 346.554 56.5 286.27 56.5 215m129.765 155.902A159.5 159.5 0 0 0 215 373.5c11.159 0 22.048-1.153 32.555-3.347v-80.702c0-4.997-2.28-9.454-5.89-12.402a9 9 0 0 1 4.724-15.919c21.893-2.37 35.861-7.895 44.528-16.892 8.545-8.87 13.463-22.728 13.463-45.422 0-18.151-4.152-30.726-10.856-39.592a9 9 0 0 1-1.044-9.087c.358-.806 2.601-6.08 3.43-12.799.665-5.395.341-10.988-1.916-15.928-4.868.463-9.415 2.55-13.469 5.375-5.198 3.622-8.857 7.97-10.211 9.717a9 9 0 0 1-9.377 3.195c-12.331-3.206-27.094-4.563-44.027-4.563-16.898 0-31.68 1.351-44.058 4.546a9 9 0 0 1-9.358-3.194c-1.368-1.763-5.029-6.104-10.222-9.718-4.049-2.817-8.587-4.896-13.445-5.358-2.173 4.754-2.556 10.116-1.985 15.339.719 6.574 2.853 11.894 3.422 13.213a9 9 0 0 1-1.141 9.068C133.261 167.914 129 180.538 129 198.816c0 22.668 4.982 36.523 13.608 45.402 8.764 9.019 22.856 14.547 44.816 16.915a9 9 0 0 1 4.729 15.918c-3.609 2.948-5.888 7.405-5.888 12.4v7.157q.004.162.002.322l-.002.08v32.596q.003.108.002.217l-.002.185zm-31.79-59.909c4.75-.111 9.457-.961 13.79-2.053v14.316c-10.21 2.797-22.483 3.54-31.878-3.976-4.279-3.423-8.693-7.74-12.572-15.497-4.424-8.848-9.738-13.881-15.726-19.552-1.607-1.521-3.261-3.088-4.96-4.787l-.002-.002-.005-.003c-.015-.008-.042-.022-.04-.197.003-.308.139-.803.494-1.25.318-.4.683-.609 1.074-.683.336-.064 1.381-.16 3.272.881 2.477 1.365 5.275 4.125 8.387 8.025 1.492 1.87 2.906 3.802 4.318 5.743l.235.323.001.001c1.282 1.762 2.643 3.633 3.917 5.201 8.589 10.572 19.446 13.749 29.695 13.51" clip-rule="evenodd"/><defs><linearGradient id="c5l47kvn-Ma" x1="153.975" x2="342.358" y1="116.893" y2="329.083" gradientUnits="userSpaceOnUse"><stop stop-color="#ec0675"/><stop offset="1" stop-color="#0d2043"/></linearGradient></defs></svg>