<?xml version="1.0" standalone="no"?>
<!DOCTYPE svg PUBLIC "-//W3C//DTD SVG 20010904//EN"
 "http://www.w3.org/TR/2001/REC-SVG-20010904/DTD/svg10.dtd">
<svg version="1.0" xmlns="http://www.w3.org/2000/svg"
 width="1024.000000pt" height="1024.000000pt" viewBox="0 0 1024.000000 1024.000000"
 preserveAspectRatio="xMidYMid meet">

<g transform="translate(0.000000,1024.000000) scale(0.100000,-0.100000)"
fill="#000000" stroke="none">
<path d="M4979 8875 c-31 -8 -98 -32 -149 -54 -354 -153 -717 -504 -1087
-1052 -116 -173 -189 -294 -478 -799 -276 -481 -338 -602 -339 -663 -1 -41 0
-42 33 -45 19 -2 89 5 155 15 165 24 395 24 496 0 127 -31 261 -104 380 -207
162 -139 334 -217 595 -269 448 -89 1007 -54 1345 86 127 52 198 95 281 169
91 81 133 111 228 158 157 80 345 102 586 70 77 -10 169 -19 205 -19 l65 0 -1
43 c-1 68 -101 253 -539 1007 -279 480 -499 786 -754 1049 -270 277 -497 431
-739 502 -96 27 -193 30 -283 9z m-25 -1005 c27 -10 778 -476 831 -515 17 -13
44 -47 60 -76 51 -94 34 -218 -40 -291 -30 -30 -777 -501 -840 -529 -108 -50
-238 7 -292 126 -16 37 -18 84 -21 544 -3 545 -1 580 48 653 54 80 169 121
254 88z"/>
<path d="M6795 6020 c-174 -28 -327 -102 -557 -271 -59 -44 -138 -94 -175
-113 -137 -68 -358 -125 -638 -162 -398 -54 -961 17 -1250 158 -33 16 -121 74
-195 128 -164 122 -316 200 -454 235 -650 164 -1340 -469 -2084 -1915 -343
-666 -511 -1182 -529 -1630 -17 -417 105 -726 363 -921 70 -54 207 -116 322
-146 87 -23 116 -26 282 -27 140 0 207 4 275 17 385 77 738 249 1070 523 97
80 198 180 455 454 314 335 631 492 1110 552 161 20 616 17 758 -5 322 -50
581 -161 814 -348 48 -38 138 -124 200 -191 346 -372 469 -484 693 -630 779
-511 1614 -486 1932 57 204 348 187 887 -48 1536 -134 372 -380 873 -649 1324
-478 801 -940 1255 -1382 1360 -82 19 -237 26 -313 15z m524 -865 c65 -36 116
-91 149 -164 22 -47 27 -70 27 -141 0 -72 -5 -94 -28 -145 -71 -153 -224 -226
-379 -181 -73 21 -156 95 -195 174 -25 50 -28 68 -28 152 0 84 3 102 28 152
35 72 121 152 185 173 73 23 176 15 241 -20z m-4215 -109 c24 -14 58 -45 75
-68 49 -67 61 -122 61 -290 l0 -148 141 0 c168 0 205 -9 269 -67 69 -62 94
-125 88 -225 -5 -91 -37 -152 -106 -205 -59 -45 -97 -53 -253 -53 l-137 0 -4
-167 c-4 -188 -11 -213 -74 -283 -55 -61 -106 -84 -184 -84 -111 0 -199 62
-239 168 -18 49 -21 78 -21 210 l0 154 -157 4 c-179 4 -209 13 -276 87 -117
130 -90 334 58 426 48 30 50 30 211 33 l162 4 4 171 c3 170 3 173 33 226 33
61 83 105 141 127 58 21 153 13 208 -20z m3671 -470 c65 -32 118 -90 154 -165
22 -47 26 -70 26 -146 0 -77 -4 -98 -27 -147 -54 -116 -164 -188 -288 -188
-124 0 -228 68 -287 188 -24 50 -28 69 -28 147 0 82 3 97 33 157 80 164 261
230 417 154z m1077 3 c66 -34 95 -59 133 -113 98 -144 77 -339 -51 -455 -159
-145 -400 -93 -495 108 -30 63 -37 179 -15 254 54 184 268 288 428 206z m-581
-559 c83 -22 166 -103 206 -201 27 -65 24 -198 -5 -263 -36 -80 -85 -131 -160
-168 -57 -28 -77 -33 -137 -32 -125 1 -226 70 -284 193 -22 47 -26 70 -26 146
0 76 4 99 26 145 34 73 76 120 138 154 82 44 144 51 242 26z"/>
</g>
</svg>
