<?xml version="1.0" encoding="UTF-8"?><svg id="Layer_1" xmlns="http://www.w3.org/2000/svg" xmlns:xlink="http://www.w3.org/1999/xlink" viewBox="0 0 824.32 825.58"><defs><style>.cls-1{fill:url(#linear-gradient);}.cls-1,.cls-2,.cls-3,.cls-4,.cls-5,.cls-6,.cls-7,.cls-8,.cls-9,.cls-10,.cls-11,.cls-12,.cls-13,.cls-14,.cls-15,.cls-16,.cls-17,.cls-18,.cls-19,.cls-20,.cls-21,.cls-22,.cls-23,.cls-24,.cls-25,.cls-26,.cls-27,.cls-28,.cls-29,.cls-30,.cls-31,.cls-32,.cls-33,.cls-34,.cls-35,.cls-36,.cls-37,.cls-38,.cls-39,.cls-40,.cls-41,.cls-42,.cls-43,.cls-44,.cls-45{stroke-width:0px;}.cls-2{fill:url(#linear-gradient-38);}.cls-3{fill:url(#linear-gradient-33);}.cls-4{fill:url(#linear-gradient-29);}.cls-5{fill:url(#linear-gradient-32);}.cls-6{fill:url(#linear-gradient-30);}.cls-7{fill:url(#linear-gradient-31);}.cls-8{fill:url(#linear-gradient-36);}.cls-9{fill:url(#linear-gradient-39);}.cls-10{fill:url(#linear-gradient-34);}.cls-11{fill:url(#linear-gradient-37);}.cls-12{fill:url(#linear-gradient-35);}.cls-13{fill:url(#linear-gradient-28);}.cls-14{fill:url(#linear-gradient-25);}.cls-15{fill:url(#linear-gradient-11);}.cls-16{fill:url(#linear-gradient-12);}.cls-17{fill:url(#linear-gradient-13);}.cls-18{fill:url(#linear-gradient-10);}.cls-19{fill:url(#linear-gradient-17);}.cls-20{fill:url(#linear-gradient-16);}.cls-21{fill:url(#linear-gradient-19);}.cls-22{fill:url(#linear-gradient-15);}.cls-23{fill:url(#linear-gradient-23);}.cls-24{fill:url(#linear-gradient-21);}.cls-25{fill:url(#linear-gradient-18);}.cls-26{fill:url(#linear-gradient-14);}.cls-27{fill:url(#linear-gradient-22);}.cls-28{fill:url(#linear-gradient-20);}.cls-29{fill:url(#linear-gradient-27);}.cls-30{fill:url(#linear-gradient-24);}.cls-31{fill:url(#linear-gradient-26);}.cls-32{fill:url(#linear-gradient-45);}.cls-33{fill:url(#linear-gradient-44);}.cls-34{fill:url(#linear-gradient-42);}.cls-35{fill:url(#linear-gradient-43);}.cls-36{fill:url(#linear-gradient-40);}.cls-37{fill:url(#linear-gradient-41);}.cls-38{fill:url(#linear-gradient-4);}.cls-39{fill:url(#linear-gradient-2);}.cls-40{fill:url(#linear-gradient-3);}.cls-41{fill:url(#linear-gradient-8);}.cls-42{fill:url(#linear-gradient-9);}.cls-43{fill:url(#linear-gradient-7);}.cls-44{fill:url(#linear-gradient-5);}.cls-45{fill:url(#linear-gradient-6);}</style><linearGradient id="linear-gradient" x1="147.75" y1="405.9" x2="685.26" y2="405.9" gradientUnits="userSpaceOnUse"><stop offset="0" stop-color="#8cb7f1"/><stop offset=".5" stop-color="#f8c5cc"/><stop offset="1" stop-color="#fff5f4"/></linearGradient><linearGradient id="linear-gradient-2" x1="739.5" y1="-155.97" x2="-425.67" y2="777.95" xlink:href="#linear-gradient"/><linearGradient id="linear-gradient-3" x1="1038.09" y1="216.56" x2="-127.08" y2="1150.47" xlink:href="#linear-gradient"/><linearGradient id="linear-gradient-4" x1="694.88" y1="-211.63" x2="-470.28" y2="722.28" xlink:href="#linear-gradient"/><linearGradient id="linear-gradient-5" x1="680.99" y1="-228.97" x2="-484.18" y2="704.95" xlink:href="#linear-gradient"/><linearGradient id="linear-gradient-6" x1="663.69" y1="-250.55" x2="-501.48" y2="683.36" xlink:href="#linear-gradient"/><linearGradient id="linear-gradient-7" x1="656.05" y1="-260.07" x2="-509.11" y2="673.84" xlink:href="#linear-gradient"/><linearGradient id="linear-gradient-8" x1="648.51" y1="-269.49" x2="-516.66" y2="664.42" xlink:href="#linear-gradient"/><linearGradient id="linear-gradient-9" x1="648.24" y1="-269.82" x2="-516.93" y2="664.09" xlink:href="#linear-gradient"/><linearGradient id="linear-gradient-10" x1="649.99" y1="-267.65" x2="-515.18" y2="666.27" xlink:href="#linear-gradient"/><linearGradient id="linear-gradient-11" x1="657.75" y1="-257.96" x2="-507.41" y2="675.96" xlink:href="#linear-gradient"/><linearGradient id="linear-gradient-12" x1="671.87" y1="-240.34" x2="-493.29" y2="693.58" xlink:href="#linear-gradient"/><linearGradient id="linear-gradient-13" x1="689.92" y1="-217.83" x2="-475.25" y2="716.09" xlink:href="#linear-gradient"/><linearGradient id="linear-gradient-14" x1="719.07" y1="-181.46" x2="-446.1" y2="752.46" xlink:href="#linear-gradient"/><linearGradient id="linear-gradient-15" x1="736.59" y1="-159.59" x2="-428.58" y2="774.32" xlink:href="#linear-gradient"/><linearGradient id="linear-gradient-16" x1="767.11" y1="-121.52" x2="-398.06" y2="812.39" xlink:href="#linear-gradient"/><linearGradient id="linear-gradient-17" x1="794.05" y1="-87.91" x2="-371.12" y2="846" xlink:href="#linear-gradient"/><linearGradient id="linear-gradient-18" x1="821.22" y1="-54.01" x2="-343.94" y2="879.91" xlink:href="#linear-gradient"/><linearGradient id="linear-gradient-19" x1="852.08" y1="-15.51" x2="-313.09" y2="918.4" xlink:href="#linear-gradient"/><linearGradient id="linear-gradient-20" x1="878.96" y1="18.02" x2="-286.21" y2="951.94" xlink:href="#linear-gradient"/><linearGradient id="linear-gradient-21" x1="907.05" y1="53.08" x2="-258.12" y2="986.99" xlink:href="#linear-gradient"/><linearGradient id="linear-gradient-22" x1="927.28" y1="78.31" x2="-237.89" y2="1012.23" xlink:href="#linear-gradient"/><linearGradient id="linear-gradient-23" x1="951.79" y1="108.89" x2="-213.38" y2="1042.8" xlink:href="#linear-gradient"/><linearGradient id="linear-gradient-24" x1="986.75" y1="152.51" x2="-178.41" y2="1086.42" xlink:href="#linear-gradient"/><linearGradient id="linear-gradient-25" x1="794.4" y1="-87.47" x2="-370.76" y2="846.45" xlink:href="#linear-gradient"/><linearGradient id="linear-gradient-26" x1="817.97" y1="-58.07" x2="-347.2" y2="875.85" xlink:href="#linear-gradient"/><linearGradient id="linear-gradient-27" x1="853.64" y1="-13.56" x2="-311.52" y2="920.35" xlink:href="#linear-gradient"/><linearGradient id="linear-gradient-28" x1="886.32" y1="27.21" x2="-278.85" y2="961.12" xlink:href="#linear-gradient"/><linearGradient id="linear-gradient-29" x1="928.87" y1="80.3" x2="-236.3" y2="1014.21" xlink:href="#linear-gradient"/><linearGradient id="linear-gradient-30" x1="962.63" y1="122.42" x2="-202.54" y2="1056.33" xlink:href="#linear-gradient"/><linearGradient id="linear-gradient-31" x1="978.82" y1="142.62" x2="-186.34" y2="1076.53" xlink:href="#linear-gradient"/><linearGradient id="linear-gradient-32" x1="1011.8" y1="183.76" x2="-153.37" y2="1117.67" xlink:href="#linear-gradient"/><linearGradient id="linear-gradient-33" x1="1044.14" y1="224.1" x2="-121.03" y2="1158.02" xlink:href="#linear-gradient"/><linearGradient id="linear-gradient-34" x1="1070.31" y1="256.76" x2="-94.85" y2="1190.68" xlink:href="#linear-gradient"/><linearGradient id="linear-gradient-35" x1="1097.71" y1="290.94" x2="-67.46" y2="1224.85" xlink:href="#linear-gradient"/><linearGradient id="linear-gradient-36" x1="1108.98" y1="305.01" x2="-56.19" y2="1238.92" xlink:href="#linear-gradient"/><linearGradient id="linear-gradient-37" x1="1122.32" y1="321.65" x2="-42.84" y2="1255.56" xlink:href="#linear-gradient"/><linearGradient id="linear-gradient-38" x1="1129.01" y1="329.99" x2="-36.16" y2="1263.9" xlink:href="#linear-gradient"/><linearGradient id="linear-gradient-39" x1="1131.86" y1="333.55" x2="-33.31" y2="1267.46" xlink:href="#linear-gradient"/><linearGradient id="linear-gradient-40" x1="1131.74" y1="333.4" x2="-33.42" y2="1267.32" xlink:href="#linear-gradient"/><linearGradient id="linear-gradient-41" x1="1126.98" y1="327.46" x2="-38.19" y2="1261.37" xlink:href="#linear-gradient"/><linearGradient id="linear-gradient-42" x1="1118.19" y1="316.5" x2="-46.98" y2="1250.41" xlink:href="#linear-gradient"/><linearGradient id="linear-gradient-43" x1="1112.37" y1="309.23" x2="-52.8" y2="1243.15" xlink:href="#linear-gradient"/><linearGradient id="linear-gradient-44" x1="1101.37" y1="295.5" x2="-63.8" y2="1229.42" xlink:href="#linear-gradient"/><linearGradient id="linear-gradient-45" x1="1080.97" y1="270.05" x2="-84.2" y2="1203.97" xlink:href="#linear-gradient"/></defs><path class="cls-1" d="m355.41,573.06c-37.57-36.87-76.42-75-107.67-116.93-25.61-34.35-27.68-77.34-5.28-109.5,12.42-17.82,28.31-27.32,48.57-29.05,13.44-1.14,24.41,2.04,33.53,9.73,28.45,23.99,41.71,64.95,54.54,104.56,4.82,14.88,9.37,28.93,14.71,42.21,25.4,63.08,62.4,103.64,107,117.3,53.49,16.38,117.58-8.96,152.39-60.24,29.27-43.12,38.91-100.85,27.15-162.55-8.1-42.48-24.27-77.12-48.05-102.95-42.08-45.7-109.93-62.23-168.82-41.12-32.04,11.48-53.06,31.77-70.74,53.12-.17-.23-.33-.46-.48-.67-2.34-3.28-4.76-6.66-7.51-9.59-7.2-7.68-14.49-13.92-22.31-19.06-34.29-22.58-80.36-26.15-120.23-9.31-36.79,15.53-66.86,47.26-82.52,87.03-13.13,33.35-15.55,70.87-6.84,105.63,13.29,53,48.88,93.52,83.31,132.72,3.74,4.26,7.47,8.51,11.15,12.75l108.07-4.08Zm116.65-256.51c11.07-6.82,23.24-10.66,35.54-11.71,26.47-2.25,53.51,8.48,71.25,30.45,15.57,19.29,24.66,46.55,25.59,76.77.95,30.98-9.35,72.47-41.48,87.44-16.26,7.58-36.68,6.46-52.02-2.84-15.26-9.26-25.73-26.07-32.27-37.92-12.9-23.33-22.13-48.08-31.9-74.28-4.56-12.23-9.25-24.82-14.35-37.2,8.62-8.65,33.12-26.69,39.65-30.71Z"/><circle class="cls-39" cx="34.82" cy="408.85" r="26.14"/><circle class="cls-40" cx="798.18" cy="408.85" r="26.14"/><path class="cls-38" d="m0,342.75l2.53-10.17,21.47-5.54c1.62-.43,2.88-.64,4.3-.9-1.12-.96-1.9-1.45-3.38-2.8l-16.39-14.88,2.46-9.89,27.16,25.33,20.48,5.09-2.26,9.1-20.48-5.09L0,342.75Z"/><path class="cls-44" d="m72.33,289.65c-5.54,14.28-19.96,20.01-35.19,14.09-15.17-5.89-21.98-19.93-16.44-34.22,5.54-14.28,20.01-20.14,35.24-14.23,15.17,5.89,21.95,20,16.38,34.35Zm-43.22-16.86c-3.56,9.16.93,17.66,11.59,21.8,10.66,4.14,19.7.89,23.26-8.27,3.55-9.16-1.07-17.71-11.59-21.8-10.66-4.14-19.71-.89-23.26,8.27Z"/><path class="cls-45" d="m37.51,232.75l4.63-8.16,29.07,16.51c6.69,3.8,12.45,2.27,16.22-4.36,3.77-6.63,2.11-12.46-4.53-16.23l-29.07-16.51,4.63-8.16,29.58,16.8c10.9,6.19,13.73,17.24,7.28,28.59-6.41,11.28-17.28,14.55-28.25,8.32l-29.58-16.8Z"/><path class="cls-43" d="m110.64,214.18l-42.66-32.45,12.39-16.28c7.37-9.69,16.58-11.62,24.98-5.23,5.72,4.35,7.76,10.14,5.98,16.71l23.68,5.21-6.22,8.17-21.43-4.88-6.97,9.16,15.93,12.12-5.68,7.47Zm-16.84-24.6l6.7-8.81c3.6-4.73,3.22-9.44-1.1-12.72-4.26-3.24-8.78-2.26-12.38,2.47l-6.7,8.81,13.48,10.25Z"/><path class="cls-41" d="m147.46,142.89l12.51,13.59-6.9,6.36-36.3-39.41,15.58-14.35c7.93-7.3,17.82-6.84,24.92.87,7,7.6,6.74,17.71-1.13,24.96l-8.68,8Zm-18.13-19.68l12.47,13.53,7.23-6.65c4.74-4.37,4.94-9.24.97-13.55s-8.75-4.3-13.33-.08l-7.33,6.75Z"/><path class="cls-42" d="m180.41,137.31l-15.72-54.76,7.78-5.63,47.08,32.08-8.02,5.8-10.77-7.5-16.21,11.73,3.76,12.57-7.9,5.71Zm1.76-26.33l11.76-8.51-15.13-10.41c-1.17-.87-2.53-1.88-3.3-2.68.42.96,1.01,2.52,1.46,4.01l5.21,17.58Z"/><path class="cls-18" d="m189.74,64.81l35.42-20.15,4.28,7.52-13.64,7.75,22.21,39.06-8.16,4.64-22.21-39.06-13.63,7.75-4.28-7.52Z"/><path class="cls-15" d="m256.67,88.74l-20.31-49.58,8.68-3.56,8.39,20.48,21.97-9-8.39-20.48,8.68-3.56,20.3,49.58-8.68,3.56-8.61-21.02-21.97,9,8.61,21.02-8.68,3.56Z"/><path class="cls-16" d="m308.52,13.01l39.88-8.44,1.79,8.46-15.35,3.25,9.31,43.96-9.18,1.94-9.31-43.96-15.35,3.25-1.79-8.46Z"/><path class="cls-17" d="m385.77,55.34c-15.27,1.26-26.72-9.2-28.06-25.49-1.33-16.22,8.32-28.49,23.59-29.75,15.27-1.26,26.87,9.19,28.21,25.48,1.34,16.22-8.39,28.5-23.74,29.76Zm-3.73-46.25c-9.79.81-15.48,8.56-14.54,19.95.94,11.4,7.82,18.11,17.61,17.31,9.79-.8,15.47-8.7,14.54-19.95-.94-11.4-7.82-18.11-17.61-17.31Z"/><path class="cls-26" d="m437.95,53.48L443.26.16l33.11,3.3-.86,8.61-23.78-2.37-1.37,13.71,21.3,2.12-.82,8.24-21.3-2.12-1.41,14.15,23.78,2.37-.86,8.61-33.11-3.3Z"/><path class="cls-22" d="m486.34,4.61l9.72,2.21,4.61,32.69c.43,3.4.73,6.71.92,11.18,2.32-4.28,4.13-7.26,5.73-9.67l18.12-27.53,9.51,2.16-31.3,47.84-9.44-2.14-7.87-56.73Z"/><path class="cls-20" d="m527.85,69.9l18.28-50.38,31.29,11.35-2.95,8.13-22.47-8.15-4.7,12.96,20.12,7.3-2.83,7.79-20.12-7.3-4.85,13.37,22.47,8.15-2.95,8.13-31.29-11.35Z"/><path class="cls-19" d="m567.12,84.64l24.27-47.77,18.23,9.26c10.85,5.51,14.4,14.22,9.62,23.63-3.25,6.4-8.58,9.45-15.37,8.88l-.87,24.22-9.15-4.65.96-21.96-10.26-5.21-9.06,17.84-8.36-4.25Zm21.18-20.97l9.87,5.01c5.29,2.69,9.86,1.47,12.31-3.36,2.42-4.77.65-9.04-4.65-11.73l-9.87-5.01-7.67,15.1Z"/><path class="cls-25" d="m621.79,104.96l18.7,12.4-4.78,7.21-26.51-17.58,29.62-44.66,7.82,5.19-24.84,37.45Z"/><path class="cls-21" d="m637.89,125.76l49.49-28.23,7.31,6.23-20.03,53.34-7.53-6.42,4.74-12.23-15.23-12.98-11.33,6.62-7.42-6.32Zm26-4.52l11.05,9.41,6.54-17.16c.57-1.35,1.22-2.91,1.83-3.84-.83.64-2.21,1.58-3.56,2.36l-15.85,9.22Z"/><path class="cls-28" d="m729.03,135.88c7.35,7.98,7.59,17.13.67,23.9l-6.36-6.91c3.25-3.29,3.01-7.55-.57-11.44-3.92-4.26-8.51-5.13-11.8-2.1-2.8,2.58-2.98,5.53-.7,9.52l4.36,7.44c4.75,8.08,4.33,14.55-1.55,19.97-7.34,6.75-17.35,5.41-25.34-3.28-7.75-8.41-8.33-18.04-1.42-24.71l6.36,6.91c-3.3,3.13-2.81,7.67,1.26,12.09,4.22,4.59,8.9,5.66,12.19,2.63,2.64-2.44,2.97-5.22.69-9.11l-4.36-7.55c-4.7-8.03-4.1-15.06,1.94-20.62,6.91-6.36,16.97-5.06,24.62,3.25Z"/><path class="cls-24" d="m746.02,156.29l24.12,32.86-6.97,5.12-9.28-12.65-36.23,26.59-5.55-7.56,36.23-26.59-9.28-12.65,6.97-5.12Z"/><path class="cls-27" d="m734.7,234.3l-4.9-8,45.7-27.97,4.9,8-45.7,27.97Z"/><path class="cls-23" d="m740.54,243.2l48.29-23.24,4.04,8.39-23.31,39.13,34.22-16.47,4.01,8.32-48.29,23.24-4.01-8.32,23.28-39.2-34.22,16.47-4.01-8.32Z"/><path class="cls-30" d="m790.43,290.53c-11.41,3.53-15.61,12.04-12.68,21.5,2.75,8.89,9.32,12.77,17.52,10.23l.21-.06-4.79-15.48,7.91-2.45,7.37,23.81-28.78,8.91-2.34-7.56,5.71-2.38c-4.79-1.59-9.32-6.55-11.46-13.49-4.44-14.35,2.89-27.6,18.65-32.47,15.54-4.81,29.75,1.92,34.52,17.32,3.62,11.7-.38,22.83-10.36,27.53l-2.92-9.45c5.52-3.47,6.72-9.52,4.81-15.69-3.14-10.15-12.3-13.69-23.36-10.26Z"/><path class="cls-14" d="m68.57,471.93l2.4,10.55-17.21,15.08c-1.29,1.15-2.35,1.93-3.55,2.82,1.48.36,2.43.46,4.42,1.01l22.02,6.09,2.33,10.25-36.81-10.72-21.25,4.83-2.15-9.44,21.25-4.83,28.54-25.65Z"/><path class="cls-31" d="m34.2,558.47c-5.5-14.83,1.71-29.12,17.53-34.98,15.75-5.84,30.63.34,36.13,15.17,5.5,14.83-1.66,29.26-17.48,35.13-15.75,5.84-30.66-.41-36.18-15.31Zm44.94-16.58c-3.52-9.51-12.81-13-23.88-8.9-11.07,4.1-15.83,12.81-12.3,22.32,3.52,9.51,12.95,12.95,23.88,8.9,11.07-4.1,15.83-12.81,12.31-22.32Z"/><path class="cls-29" d="m98.49,568.11l4.69,8.47-30.18,16.71c-6.95,3.85-8.7,9.75-4.89,16.63,3.81,6.88,9.84,8.56,16.73,4.75l30.18-16.71,4.69,8.47-30.71,17.01c-11.32,6.27-22.57,2.81-29.1-8.97-6.49-11.71-3.51-23.05,7.87-29.35l30.71-17.01Z"/><path class="cls-13" d="m80.1,646.39l44.2-33.24,12.69,16.87c7.55,10.04,6.88,19.72-1.83,26.27-5.92,4.46-12.25,4.86-18.28,1.25l-11.82,22.05-6.37-8.47,10.87-19.91-7.14-9.49-16.51,12.41-5.82-7.74Zm29.16-9.81l6.86,9.13c3.69,4.9,8.47,5.84,12.94,2.48,4.41-3.32,4.71-8.09,1.03-12.98l-6.87-9.13-13.97,10.5Z"/><path class="cls-4" d="m148.68,697.56l-12.91,14.03-7.13-6.56,37.44-40.7,16.09,14.8c8.18,7.53,8.56,17.74,1.23,25.7-7.22,7.85-17.64,8.44-25.77.97l-8.96-8.25Zm18.69-20.32l-12.86,13.97,7.46,6.86c4.9,4.51,9.92,4.3,14.02-.16,4.1-4.45,3.68-9.36-1.05-13.72l-7.57-6.97Z"/><path class="cls-6" d="m160.66,734.46l48.45-33.33,8.06,5.77-15.97,56.6-8.3-5.95,3.82-12.99-16.79-12.03-11.08,7.8-8.18-5.86Zm26.35-6.9l12.18,8.72,5.23-18.22c.47-1.43,1.01-3.1,1.55-4.11-.8.73-2.14,1.82-3.45,2.74l-15.51,10.86Z"/><path class="cls-7" d="m228.6,715.22l36.75,20.48-4.35,7.8-14.14-7.88-22.58,40.51-8.46-4.72,22.58-40.51-14.14-7.88,4.35-7.8Z"/><path class="cls-5" d="m248.4,788.81l20.31-51.43,9.01,3.56-8.39,21.25,22.8,9,8.39-21.25,9.01,3.56-20.31,51.43-9.01-3.56,8.61-21.81-22.8-9-8.61,21.81-9.01-3.56Z"/><path class="cls-3" d="m331.43,759.76l41.31,7.91-1.68,8.77-15.9-3.04-8.72,45.54-9.51-1.82,8.72-45.54-15.9-3.04,1.68-8.77Z"/><path class="cls-10" d="m394.56,825.52c-15.78-.93-25.97-13.28-24.98-30.12.99-16.77,12.63-27.9,28.42-26.97,15.78.93,26.12,13.29,25.13,30.13-.99,16.77-12.71,27.9-28.57,26.96Zm2.9-47.8c-10.12-.6-17.06,6.5-17.75,18.28-.69,11.78,5.36,19.64,15.48,20.24,10.12.6,17.06-6.65,17.75-18.28.7-11.78-5.36-19.64-15.48-20.24Z"/><path class="cls-12" d="m456.15,824l-7.12-54.85,34.06-4.42,1.15,8.85-24.46,3.18,1.83,14.11,21.91-2.84,1.1,8.48-21.91,2.84,1.89,14.56,24.46-3.17,1.15,8.85-34.06,4.42Z"/><path class="cls-8" d="m484.78,764.9l9.95-2.62,19.83,27.71c2.02,2.91,3.87,5.79,6.18,9.79.08-5.03.31-8.61.62-11.59l3.44-33.85,9.73-2.57-5.79,58.73-9.66,2.55-34.3-48.15Z"/><path class="cls-11" d="m558.39,801.36l-20.87-51.21,31.8-12.96,3.37,8.27-22.84,9.31,5.36,13.17,20.46-8.34,3.22,7.92-20.45,8.33,5.54,13.59,22.84-9.31,3.37,8.27-31.8,12.96Z"/><path class="cls-2" d="m602.86,782.36l-27.13-48.2,18.4-10.36c10.95-6.16,20.46-4.22,25.8,5.27,3.64,6.46,3.2,12.78-1.17,18.28l20.3,14.62-9.23,5.2-18.31-13.4-10.35,5.83,10.13,18-8.44,4.75Zm-5.89-30.2l9.96-5.6c5.34-3.01,6.91-7.62,4.16-12.5-2.71-4.81-7.4-5.74-12.74-2.73l-9.96,5.6,8.57,15.23Z"/><path class="cls-9" d="m651.85,741.88l18.67-13.68,5.28,7.2-26.48,19.4-32.68-44.61,7.81-5.72,27.4,37.41Z"/><path class="cls-36" d="m681.88,730.86l-23.43-53.94,7.21-6.8,52.49,26.52-7.43,7.01-12.02-6.24-15.02,14.18,5.53,12.36-7.32,6.91Zm-1.73-27.19l10.9-10.28-16.88-8.62c-1.32-.73-2.84-1.58-3.73-2.3.56.93,1.37,2.45,2.03,3.91l7.69,17.3Z"/><path class="cls-37" d="m691.96,640.1c7.12-8.64,16.42-10.18,24.32-4.07l-6.15,7.47c-3.82-2.85-8.15-2.01-11.61,2.2-3.8,4.61-4.03,9.42-.47,12.35,3.03,2.5,6.07,2.26,9.82-.63l6.99-5.51c7.59-6,14.25-6.48,20.62-1.24,7.94,6.54,7.98,16.96.24,26.36-7.5,9.11-17.25,11.07-25.04,4.95l6.15-7.47c3.67,2.92,8.23,1.78,12.17-3,4.09-4.96,4.52-9.89.96-12.83-2.86-2.36-5.76-2.29-9.4.59l-7.1,5.52c-7.54,5.94-14.81,6.32-21.35.93-7.47-6.15-7.57-16.62-.17-25.61Z"/><path class="cls-34" d="m705.22,625.65l22.84-35.31,7.49,4.85-8.79,13.59,38.93,25.18-5.26,8.13-38.93-25.18-8.79,13.59-7.49-4.85Z"/><path class="cls-35" d="m783.39,602.98l-4.53,8.56-48.87-25.87,4.53-8.56,48.87,25.87Z"/><path class="cls-33" d="m790.61,589.63l-51.3-20.64,3.58-8.91,46.04-9.44-36.35-14.63,3.56-8.84,51.3,20.64-3.56,8.84-46.07,9.52,36.35,14.63-3.56,8.84Z"/><path class="cls-32" d="m787.56,519.07c12.01,2.8,20.18-2.6,22.5-12.55,2.18-9.36-1.65-16.23-10.27-18.24l-.22-.05-3.8,16.28-8.33-1.94,5.84-25.05,30.28,7.06-1.85,7.96-6.33-.85c3.44,3.91,4.89,10.69,3.19,17.99-3.52,15.1-16.95,23.08-33.53,19.22-16.36-3.81-25.51-17.21-21.73-33.42,2.87-12.3,12.23-20.14,23.57-19.13l-2.32,9.95c-6.73.22-10.95,4.98-12.46,11.47-2.49,10.68,3.82,18.6,15.46,21.32Z"/></svg>